<svg width="360" height="619" viewBox="0 0 360 619" fill="none" xmlns="http://www.w3.org/2000/svg">
<rect width="360" height="559" transform="translate(0 60)" fill="#1B2125"/>
<path d="M-12.1936 431.785C32.7735 428.022 64.5094 416.054 85.3074 405.693C106.339 395.215 121.486 383.721 149.164 377.541C179.691 370.675 199.638 373.751 207.527 375.482C218.465 377.885 217.785 379.519 235.679 385.094C270.051 395.806 276.581 391.041 291.982 398.14C317.518 409.909 309.903 427.768 336.613 447.578C355.955 461.928 387.979 473.347 416.948 465.43C444.228 457.973 447.297 439.249 475.998 436.591C487.787 435.5 497.592 437.924 517.196 442.771C542.319 448.951 559.19 456.572 565.946 459.25C585.961 467.194 618.267 472.193 671 456.504" stroke="#FFF500" stroke-opacity="0.1" stroke-miterlimit="10"/>
<path d="M-12.4958 437.841C31.002 434.593 63.5207 423.758 86.2068 413.02C104.636 404.176 118.691 394.481 138.061 387.553C142.297 386.042 146.76 384.579 151.567 383.316C181.854 375.365 201.725 376.676 210.019 377.48C221.143 378.551 221.143 379.773 238.679 385.191C251.038 389.001 259.841 391.178 266.659 392.606C278.249 395.03 284.051 395.195 293.197 399.857C296.61 401.582 299.812 403.695 302.741 406.153C316.289 417.517 315.712 431.922 338.185 447.193C357.747 460.486 389.559 470.538 418.033 462.676C420.289 462.052 422.512 461.314 424.693 460.466C446.706 451.89 451.65 436.804 476.877 434.435C479.535 434.182 482.208 434.106 484.876 434.209C493.843 434.525 503.113 436.763 517.793 440.389C542.113 446.431 558.723 453.908 566.173 456.868C571.629 459.015 577.256 460.701 582.995 461.907C602.852 466.137 630.922 466.577 670.409 455.783" stroke="#FFF500" stroke-opacity="0.1" stroke-miterlimit="10"/>
<path d="M-12.7979 444.433C29.2237 441.686 62.5594 432.073 87.1063 420.826C106.6 411.9 121.307 401.704 140.32 394.426C144.659 392.757 149.157 391.068 153.984 389.619C184.031 380.576 203.799 379.485 212.532 380.006C223.786 380.693 224.535 380.563 241.687 385.815C253.696 389.503 262.464 391.995 269.152 393.746C280.419 396.678 285.837 397.268 294.392 402.109C297.652 403.973 300.716 406.161 303.538 408.639C316.625 419.927 317.271 433.467 339.771 447.365C359.553 459.593 391.152 468.279 419.132 460.472C421.5 459.786 423.691 459.099 425.744 458.275C448.451 449.541 453.477 435.156 477.776 432.87C480.414 432.61 483.065 432.525 485.714 432.616C494.832 432.884 504.088 435.06 518.411 438.651C541.935 444.529 558.27 451.883 566.42 455.055C571.833 457.183 577.408 458.873 583.091 460.108C602.77 464.434 630.709 465.347 669.805 455.625" stroke="#FFF500" stroke-opacity="0.1" stroke-miterlimit="10"/>
<path d="M-13.0931 451.471C27.4522 449.253 61.5844 440.773 88.0127 429.114C108.543 420.051 123.923 409.387 142.565 401.752C147.015 399.926 151.553 398.017 156.387 396.376C186.193 386.255 205.824 384.133 215.032 382.98C226.423 381.558 227.913 381.799 244.687 386.887C256.36 390.436 265.094 393.252 271.685 395.325C282.623 398.758 287.67 399.788 295.635 404.801C298.717 406.807 301.625 409.069 304.328 411.564C316.955 422.77 318.863 435.438 341.337 447.955C361.366 459.12 392.724 466.446 420.21 458.687C422.558 458.001 424.734 457.314 426.774 456.511C450.16 447.584 455.289 433.927 478.648 431.655C481.267 431.389 483.9 431.295 486.531 431.373C495.8 431.586 505.07 433.715 519.015 437.237C541.729 442.943 557.803 450.166 566.647 453.606C572.027 455.702 577.556 457.393 583.187 458.667C602.688 463.088 630.496 464.482 669.194 455.824" stroke="#FFF500" stroke-opacity="0.1" stroke-miterlimit="10"/>
<path d="M-13.3952 458.522C25.6807 456.82 60.5957 449.486 88.9121 437.409C110.486 428.201 126.532 417.064 144.817 409.085C149.37 407.101 153.943 404.965 158.797 403.139C188.363 391.961 207.815 388.157 217.538 385.973C229.025 383.392 231.27 383.055 247.695 387.978C259.058 391.411 267.717 394.529 274.198 396.904C284.807 400.832 289.476 402.315 296.857 407.492C299.756 409.636 302.509 411.971 305.097 414.482C317.27 425.592 320.443 437.395 342.895 448.573C363.171 458.667 394.283 464.64 421.281 456.936C423.601 456.25 425.764 455.563 427.797 454.773C451.87 445.662 457.088 432.801 479.513 430.501C482.114 430.239 484.728 430.135 487.341 430.192C496.748 430.357 505.99 432.431 519.613 435.884C541.53 441.432 557.336 448.532 566.873 452.219C572.215 454.294 577.696 455.99 583.277 457.293C602.605 461.818 630.283 463.679 668.59 456.099" stroke="#FFF500" stroke-opacity="0.1" stroke-miterlimit="10"/>
<path d="M-13.6836 463.068C23.923 461.88 59.6275 455.7 89.8254 443.204C112.436 433.845 129.155 422.214 147.083 413.919C151.732 411.77 156.353 409.435 161.221 407.403C190.533 395.167 209.827 389.716 220.037 386.454C231.628 382.76 234.669 381.792 250.695 386.557C259.545 389.198 268.232 392.357 276.711 396.019C287.011 400.434 291.289 402.384 298.066 407.691C301.025 410.019 303.373 412.498 305.914 414.908C317.634 425.894 322.077 436.88 344.488 446.685C365.032 455.7 395.882 460.328 422.386 452.679C424.686 451.993 426.836 451.306 428.854 450.53C453.621 441.254 458.928 429.073 480.42 426.841C483 426.578 485.593 426.468 488.186 426.512C497.743 426.642 506.972 428.64 520.224 432.005C541.337 437.374 556.883 444.364 567.106 448.299C572.414 450.352 577.853 452.049 583.386 453.38C602.536 458.007 630.077 460.349 667.993 453.833" stroke="#FFF500" stroke-opacity="0.1" stroke-miterlimit="10"/>
<path d="M-13.9994 466.309C22.1309 465.622 58.6251 460.589 90.7112 447.687C114.359 438.178 131.737 426.038 149.322 417.476C154.073 415.155 158.728 412.614 163.617 410.39C192.71 397.117 211.853 390.024 222.543 385.671C234.216 380.899 238.048 379.265 253.703 383.865C262.474 386.444 271.01 389.765 279.218 393.794C289.181 398.683 293.094 401.113 299.281 406.607C302.027 409.03 304.19 411.612 306.71 414.05C317.985 424.967 323.704 435.005 346.061 443.513C366.886 451.436 397.469 454.732 423.478 447.131C425.751 446.445 427.879 445.758 429.898 444.996C455.358 435.575 460.776 424.095 481.306 421.946C483.867 421.676 486.441 421.556 489.016 421.589C498.712 421.671 507.94 423.607 520.828 426.931C541.138 432.142 556.416 439.002 567.34 443.197C572.611 445.224 578.002 446.923 583.483 448.285C602.461 453.016 629.871 455.838 667.395 450.379" stroke="#FFF500" stroke-opacity="0.1" stroke-miterlimit="10"/>
<path d="M-14.2947 469.598C20.3593 469.44 57.6294 465.526 91.6175 452.219C116.295 442.551 134.326 429.89 151.567 421.019C156.421 418.513 161.125 415.766 166.027 413.363C194.886 399.067 213.892 390.361 225.043 384.868C236.873 379.045 241.426 376.724 256.703 381.16C265.411 383.711 273.806 387.23 281.731 391.652C291.343 397.001 294.9 399.939 300.503 405.57C303.016 408.096 305.007 410.761 307.5 413.246C318.335 424.047 325.352 433.193 347.64 440.389C368.754 447.207 399.048 449.177 424.542 441.638C426.794 440.952 428.909 440.265 430.914 439.51C457.068 429.897 462.547 419.137 482.171 417.002C484.711 416.732 487.265 416.603 489.82 416.617C499.666 416.617 508.881 418.526 521.405 421.795C540.919 426.828 555.921 433.577 567.546 438.013C572.78 440.023 578.127 441.728 583.558 443.121C602.358 447.928 629.638 451.23 666.763 446.857" stroke="#FFF500" stroke-opacity="0.1" stroke-miterlimit="10"/>
<path d="M-14.5968 472.9C18.5879 473.257 56.6407 470.477 92.517 456.765C118.231 446.939 136.914 433.749 153.819 424.61C158.763 421.939 163.521 419.007 168.43 416.37C197.063 401.052 215.945 390.732 227.549 384.099C239.524 377.233 244.804 374.211 259.711 378.482C268.353 381.004 276.608 384.7 284.244 389.468C293.561 395.284 296.699 398.731 301.718 404.499C304.005 407.135 305.838 409.868 308.296 412.402C318.692 423.092 326.993 431.325 349.212 437.23C370.628 442.922 400.627 443.595 425.648 436.104C427.879 435.417 429.98 434.731 431.972 433.996C458.826 424.239 464.38 414.166 483.077 412.072C485.6 411.801 488.134 411.663 490.671 411.66C500.662 411.598 509.897 413.466 522.043 416.666C540.747 421.534 555.489 428.167 567.807 432.849C573.003 434.846 578.302 436.562 583.682 437.992C602.31 442.922 629.459 446.678 666.194 443.375" stroke="#FFF500" stroke-opacity="0.1" stroke-miterlimit="10"/>
<path d="M-14.8989 476.189C16.8164 477.041 55.6657 475.386 93.4302 461.276C120.209 451.285 139.503 437.56 156.085 428.167C161.125 425.31 165.931 422.193 170.854 419.364C199.253 403.043 218.019 391.116 230.069 383.309C242.215 375.434 248.203 371.685 262.732 375.791C271.314 378.304 279.43 382.195 286.764 387.312C295.758 393.574 298.505 397.557 302.941 403.455C305 406.201 306.655 408.996 309.12 411.585C319.09 422.159 328.689 429.437 350.826 434.092C372.544 438.645 402.241 438.033 426.774 430.597C428.978 429.911 431.065 429.224 433.049 428.537C460.597 418.629 466.234 409.243 483.99 407.204C486.498 406.919 489.019 406.772 491.543 406.764C501.678 406.696 510.879 408.46 522.695 411.571C540.596 416.274 555.07 422.79 568.088 427.72C572.792 429.506 578.003 431.27 583.833 432.849C602.282 437.876 629.301 442.112 665.637 439.874" stroke="#FFF500" stroke-opacity="0.1" stroke-miterlimit="10"/>
<path d="M-15.201 479.382C15.0105 480.755 54.6495 480.234 94.3159 465.732C122.097 455.577 142.057 441.302 158.323 431.662C163.452 428.62 168.314 425.324 173.251 422.289C201.443 404.965 220.106 391.439 232.554 382.465C244.873 373.539 251.56 369.103 265.719 373.044C274.25 375.551 282.238 379.631 289.27 385.074C297.956 391.789 300.256 396.314 304.149 402.329C305.982 405.185 307.472 408.048 309.882 410.685C319.426 421.129 330.316 427.494 352.364 430.872C374.412 434.25 403.785 432.382 427.824 425.001C430.008 424.315 432.081 423.628 434.052 422.941C462.3 412.882 468.019 404.183 484.862 402.191C487.345 401.901 489.841 401.748 492.34 401.731C502.639 401.601 511.812 403.318 523.238 406.387C540.342 410.919 554.541 417.325 568.26 422.495C572.943 424.267 578.113 426.024 583.874 427.638C602.145 432.76 629.033 437.47 664.978 436.31" stroke="#FFF500" stroke-opacity="0.1" stroke-miterlimit="10"/>
<path d="M-15.4963 482.534C13.2665 484.436 53.6539 485.019 95.2223 470.133C124.061 459.834 144.618 444.975 160.569 435.115C165.794 431.881 170.71 428.414 175.674 425.173C203.648 406.84 222.214 391.734 235.054 381.552C247.571 371.65 254.966 366.446 268.699 370.229C277.817 372.742 286.098 377.94 291.762 382.767C300.146 389.922 302.062 395.003 305.351 401.134C306.944 404.1 308.276 407.032 310.651 409.724C319.777 420.023 331.937 425.441 353.909 427.576C376.245 429.767 405.337 426.663 428.882 419.337C431.038 418.65 433.098 417.963 435.061 417.277C464.003 407.06 469.798 399.047 485.693 397.111C488.157 396.816 490.635 396.653 493.116 396.623C503.545 396.424 512.719 398.099 523.822 401.107C540.122 405.474 554.033 411.763 568.452 417.181C573.115 418.932 578.244 420.696 583.929 422.33C602.028 427.556 628.786 432.74 664.333 432.63" stroke="#FFF500" stroke-opacity="0.1" stroke-miterlimit="10"/>
<path d="M-15.7984 485.644C11.495 488.068 52.6308 489.682 96.1218 474.486C125.942 463.94 147.172 448.601 162.821 438.5C168.128 435.067 173.12 431.435 178.071 427.988C205.852 408.687 224.329 391.947 237.56 380.611C250.283 369.707 258.31 363.775 271.727 367.386C280.522 369.776 288.762 375.248 294.296 380.432C302.378 388.026 303.833 393.657 306.587 399.912C307.96 402.988 309.12 405.975 311.468 408.721C320.175 418.911 333.626 423.333 355.516 424.287C378.174 425.269 406.951 420.95 430.001 413.672C432.139 412.99 434.182 412.303 436.132 411.612C465.781 401.258 471.652 393.918 486.613 392.036C489.056 391.734 491.513 391.562 493.974 391.521C504.548 391.267 513.721 392.895 524.467 395.833C539.957 400.029 553.614 406.236 568.741 411.873C573.382 413.617 578.463 415.368 584.087 417.029C602.008 422.358 628.635 428.016 663.79 428.991" stroke="#FFF500" stroke-opacity="0.1" stroke-miterlimit="10"/>
<path d="M-16.1005 488.706C9.71664 491.638 51.6421 494.385 97.0212 478.792C127.878 468.087 149.734 452.157 165.073 441.858C170.463 438.239 175.51 434.429 180.481 430.776C208.062 410.493 226.485 392.146 240.059 379.615C253.002 367.702 261.688 361.014 274.7 364.468C283.179 366.727 291.385 372.481 296.775 378.036C304.568 386.069 305.563 392.263 307.761 398.635C308.873 401.828 309.91 404.876 312.217 407.671C320.559 417.723 335.294 421.843 357.095 420.916C380.014 419.941 408.537 415.155 431.099 407.932C433.214 407.25 435.242 406.563 437.183 405.872C467.546 395.421 473.478 388.706 487.506 386.88C489.93 386.575 492.369 386.396 494.812 386.344C505.53 386.042 514.724 387.607 525.078 390.464C539.738 394.529 553.154 400.66 568.974 406.503C573.595 408.234 578.635 409.985 584.183 411.674C601.932 417.105 628.429 423.237 663.186 425.283" stroke="#FFF500" stroke-opacity="0.1" stroke-miterlimit="10"/>
<path d="M-16.4301 491.735C7.9177 495.168 50.6259 499.061 97.8933 483.063C129.787 472.2 152.226 455.687 167.291 445.154C172.784 441.336 177.885 437.368 182.856 433.481C210.253 412.196 228.572 392.284 242.538 378.551C255.728 365.642 265.087 358.241 277.735 361.523C285.892 363.651 294.063 369.68 299.315 375.605C306.82 384.065 307.335 390.821 309.017 397.303C309.882 400.612 310.782 403.716 313.055 406.572C320.951 416.487 336.908 418.932 358.667 417.503C381.889 416 410.109 409.319 432.177 402.15C434.237 401.464 436.297 400.777 438.213 400.091C469.269 389.482 475.291 383.447 488.385 381.682C490.788 381.369 493.206 381.181 495.629 381.119C506.491 380.762 515.651 382.279 525.675 385.081C539.566 388.947 552.687 394.927 569.201 401.052C573.808 402.768 578.813 404.485 584.306 406.236C601.877 411.729 628.251 418.369 662.582 421.486" stroke="#FFF500" stroke-opacity="0.1" stroke-miterlimit="10"/>
<path d="M-16.6979 494.728C6.17366 498.69 49.6577 503.703 98.8271 487.306C131.785 476.286 154.787 459.154 169.55 448.436C175.098 444.412 180.302 440.293 185.273 436.214C212.526 414.022 230.728 392.407 245.01 377.494C258.413 363.548 268.39 355.432 280.715 358.563C288.549 360.561 296.699 366.865 301.808 373.154C309.031 382.08 309.052 389.359 310.219 395.964C310.816 399.397 311.592 402.549 313.824 405.46C321.322 415.238 338.542 416.638 360.219 414.077C383.722 411.331 411.675 403.469 433.242 396.348C435.302 395.662 437.313 394.975 439.229 394.343C470.986 383.577 477.076 378.201 489.243 376.491C491.644 376.183 494.06 375.999 496.48 375.942C506.553 375.562 516.62 376.838 526.28 379.718C539.367 383.419 552.22 389.283 569.434 395.655C574.021 397.351 578.978 399.088 584.382 400.846C609.645 408.93 635.621 414.588 661.957 417.744" stroke="#FFF500" stroke-opacity="0.1" stroke-miterlimit="10"/>
<path d="M-17 497.701C4.40216 502.178 48.669 508.324 99.7265 491.522C133.694 480.343 157.307 462.635 171.822 451.697C236.249 403.105 256.641 348.834 283.743 355.57C291.254 357.437 299.384 364.015 304.341 370.675C314.929 384.889 308.255 395.669 314.641 404.32C330.296 425.537 400.716 401.841 440.293 388.528C478.882 375.544 480.31 371.362 497.283 370.675C526.911 369.46 542.312 381.359 584.485 395.394C609.56 403.698 635.283 409.9 661.387 413.933" stroke="#FFF500" stroke-opacity="0.1" stroke-miterlimit="10"/>
<path d="M-17 499.665C4.97206 504.561 47.8656 510.171 96.6779 494.09C130.371 482.96 152.981 465.08 168.561 453.579C230.797 407.691 250.208 357.993 277.817 362.429C288.604 364.159 299.556 367.627 306.786 372.941C320.992 383.392 315.712 392.737 323.951 401.093C341.989 419.398 407.672 398.848 445.354 386.633C482.061 374.692 483.544 371.314 501.486 372.001C531.299 373.14 546 383.673 585.728 397.145C610.514 405.545 636.037 411.594 661.957 415.21" stroke="#FFF500" stroke-opacity="0.1" stroke-miterlimit="10"/>
<path d="M-17 501.711C19.6427 510.146 57.8923 508.425 93.6293 496.733C127.047 485.658 148.614 467.593 165.299 455.536C225.262 412.237 244.035 366.37 271.898 369.364C286.036 370.888 299.329 371.273 309.23 375.289C326.217 382.156 322.908 389.777 333.262 397.948C353.044 413.541 414.627 395.929 450.421 384.813C485.185 373.916 486.73 371.273 505.695 373.401C535.618 376.752 549.687 386.131 586.971 398.978C611.462 407.469 636.777 413.365 662.499 416.569" stroke="#FFF500" stroke-opacity="0.1" stroke-miterlimit="10"/>
<path d="M-17 505.35C18.5757 513.887 55.8236 512.37 90.5875 500.97C123.724 489.943 144.254 471.692 162.038 459.085C219.605 418.286 238.061 381.098 265.973 377.892C283.434 375.887 298.876 376.711 311.681 379.224C331.03 383.014 329.904 388.418 342.58 396.39C363.563 409.587 421.597 394.673 455.482 384.586C488.357 374.802 489.888 372.763 509.897 376.388C539.916 381.826 553.367 390.169 588.22 402.398C612.419 410.988 637.536 416.735 663.063 419.522" stroke="#FFF500" stroke-opacity="0.1" stroke-miterlimit="10"/>
<path d="M-17 510.892C17.506 519.525 53.7516 518.206 87.5389 507.088C120.401 496.102 139.887 477.666 158.776 464.517C213.906 426.141 232.17 392.503 260.054 388.301C280.769 385.184 299.061 380.419 314.126 385.04C334.855 391.398 335.631 391.837 351.89 396.712C371.452 411.55 428.559 395.277 460.549 386.241C491.516 377.521 493.04 376.079 514.106 381.263C544.201 388.672 557.04 396.115 589.463 407.698C613.371 416.387 638.291 421.982 663.619 424.349" stroke="#FFF500" stroke-opacity="0.1" stroke-miterlimit="10"/>
<path d="M-17 516.563C16.4347 525.298 51.68 524.197 84.504 513.391C117.091 502.46 135.527 483.818 155.529 470.134C208.166 434.113 226.224 403.716 254.101 398.896C278.133 394.749 298.127 388.171 316.584 391.048C340.382 394.756 342.49 393.3 361.215 397.227C381.738 410.431 435.514 396.012 465.582 388.082C494.64 380.426 496.164 379.512 518.28 386.324C548.492 395.607 560.68 402.26 590.678 413.185C614.296 421.971 639.024 427.416 664.147 429.362" stroke="#FFF500" stroke-opacity="0.1" stroke-miterlimit="10"/>
<path d="M-17 522.344C15.3557 531.164 49.5913 530.269 81.4417 519.77C113.754 508.886 131.126 490.039 152.253 475.825C202.377 442.105 220.23 414.784 248.21 409.566C275.489 404.478 297.551 400.303 319.015 397.124C345.518 393.197 349.322 394.824 370.512 397.811C392.03 409.422 442.47 396.849 470.677 389.997C497.826 383.405 499.35 382.98 522.517 391.459C552.783 402.542 564.367 408.508 591.921 418.753C615.249 427.634 639.789 432.929 664.704 434.456" stroke="#FFF500" stroke-opacity="0.1" stroke-miterlimit="10"/>
<path d="M-17 528.201C8.56311 535.596 43.0798 538.089 78.3999 526.231C110.459 515.464 126.738 496.328 148.992 481.6C196.555 450.125 214.222 425.777 242.284 420.319C272.88 414.372 297.214 408.557 321.466 403.283C350.51 396.959 356.827 392.544 379.829 398.477C403.662 404.622 449.426 397.79 475.737 391.995C500.977 386.461 502.516 386.502 526.719 396.671C557.137 409.49 568.027 414.853 593.198 424.397C608.847 430.33 632.453 438.088 665.294 439.626" stroke="#FFF500" stroke-opacity="0.1" stroke-miterlimit="10"/>
<path d="M-17 534.161C9.16048 541.961 42.2765 543.932 75.3513 532.788C107.135 522.077 122.337 502.693 145.731 487.471C190.698 458.2 208.111 436.756 236.365 431.167C270.285 424.452 296.939 416.947 323.91 409.538C355.571 400.839 363.474 394.22 389.14 399.239C413.604 404.045 456.374 398.772 480.804 394.089C504.15 389.613 505.743 390.024 530.928 401.986C561.497 416.494 571.673 421.321 594.441 430.137C609.863 436.111 633.119 443.87 665.85 444.9" stroke="#FFF500" stroke-opacity="0.1" stroke-miterlimit="10"/>
<path d="M-17 540.19C9.77844 548.429 41.4731 549.844 72.3027 539.421C103.812 528.764 117.922 509.127 142.469 493.417C184.82 466.309 202 447.742 230.44 442.091C267.717 434.683 296.699 425.434 326.355 415.869C360.686 404.801 370.127 396.128 398.45 400.077C423.581 403.578 463.323 399.864 485.865 396.259C507.274 392.826 508.97 393.615 535.13 407.375C565.891 423.546 575.312 427.885 595.684 435.953C610.886 441.975 633.778 449.761 666.406 450.242" stroke="#FFF500" stroke-opacity="0.1" stroke-miterlimit="10"/>
<path d="M-17 546.308C10.3483 554.939 40.6766 555.838 69.254 546.136C100.489 535.528 113.493 515.615 139.208 499.445C178.915 474.466 195.394 455.426 224.521 453.098C265.815 449.795 296.479 434.01 328.799 422.282C365.829 408.852 378.236 391.384 407.761 400.997C432.425 409.051 470.244 400.997 490.932 398.511C510.419 396.142 512.218 397.261 539.339 412.841C570.313 430.645 578.937 434.559 596.927 441.851C611.902 447.928 634.444 455.721 666.963 455.673" stroke="#FFF500" stroke-opacity="0.1" stroke-miterlimit="10"/>
<path d="M-17 552.625C10.9457 561.675 39.8733 562.018 66.2123 553.092C97.1654 542.531 109.051 522.317 135.946 505.714C173.024 482.829 189.276 467.147 218.595 464.345C263.226 460.067 296.287 442.833 331.25 428.936C371.006 413.143 384.375 394.529 417.079 402.157C443.019 408.213 477.213 402.418 495.993 401.004C513.563 399.679 515.52 401.12 543.541 418.554C574.762 437.972 582.562 441.494 598.176 447.99C612.918 454.128 635.11 461.914 667.526 461.338" stroke="#FFF500" stroke-opacity="0.1" stroke-miterlimit="10"/>
<path d="M-17 559.34C11.5362 568.809 39.0631 568.623 63.1637 560.37C93.8422 549.858 104.588 529.314 132.685 512.306C167.057 491.494 183.152 479.19 212.677 475.915C260.658 470.593 296.109 451.986 333.695 435.919C376.211 417.744 390.685 398.374 426.389 403.647C453.538 407.657 484.148 404.128 501.06 403.819C516.701 403.53 518.837 405.288 547.75 424.589C579.232 445.607 586.202 448.779 599.419 454.458C613.928 460.678 635.81 468.437 668.082 467.332" stroke="#FFF500" stroke-opacity="0.1" stroke-miterlimit="10"/>
<path d="M-17 566.172C12.1336 576.059 38.2597 575.331 60.115 567.806C90.5189 557.335 100.104 536.42 129.423 519.055C161.111 500.283 177.006 491.378 206.751 487.642C258.056 481.202 295.944 461.29 336.139 443.053C381.456 422.502 397.153 402.658 435.7 405.288C463.989 407.218 491.09 405.975 506.12 406.792C519.825 407.527 522.174 409.587 551.953 430.783C583.737 453.393 589.772 456.277 600.662 461.084C614.923 467.407 636.435 475.125 668.638 473.484" stroke="#FFF500" stroke-opacity="0.1" stroke-miterlimit="10"/>
<path d="M-17 573.608C12.7309 583.907 37.4358 582.603 57.0664 575.84C87.175 565.348 95.5862 544.069 126.162 526.402C155.151 509.649 170.854 504.156 200.832 499.967C255.433 492.339 295.793 471.198 338.556 450.784C386.62 427.858 403.916 410.658 444.983 407.527C474.247 405.302 497.998 408.419 511.16 410.362C522.95 412.106 525.511 414.482 556.134 437.567C588.227 461.777 593.336 464.345 601.877 468.293C615.871 474.768 637.074 482.396 669.167 480.227" stroke="#FFF500" stroke-opacity="0.1" stroke-miterlimit="10"/>
<path d="M-17 580.969C13.3214 591.687 36.6324 589.847 54.0247 583.805C83.8517 573.361 91.027 551.574 122.9 533.681C149.184 518.925 164.688 516.858 194.907 512.224C252.796 503.346 295.649 481.03 341.035 458.454C391.907 433.138 410.83 414.51 454.328 409.703C484.54 406.38 504.98 410.754 516.248 413.864C526.129 416.611 528.923 419.289 560.364 444.289C592.8 470.078 596.934 472.392 603.154 475.448C616.832 482.163 637.767 489.599 669.757 486.901" stroke="#FFF500" stroke-opacity="0.1" stroke-miterlimit="10"/>
<path d="M-17 588.336C13.8982 599.467 35.8703 597.098 50.976 591.769C80.501 581.374 86.4197 558.969 119.639 540.959C143.217 528.174 158.516 529.561 188.988 524.48C250.132 514.284 295.511 490.835 343.479 466.117C397.16 438.418 417.765 418.334 463.639 411.873C494.915 407.472 511.957 413.054 521.315 417.366C529.301 421.046 532.301 424.088 564.573 451.011C597.359 478.387 600.483 480.467 604.397 482.596C617.628 489.798 638.426 496.809 670.313 493.582" stroke="#FFF500" stroke-opacity="0.1" stroke-miterlimit="10"/>
<path d="M-84 21.7631C-35.8209 41.1974 -9.85057 66.8289 5.12734 87.7973C17.613 105.279 17.3915 112.43 30.6494 125.472C59.4203 153.774 114.534 173.291 141.245 148.969C154.403 136.988 149.536 121.806 155.83 93.0632C161.492 67.2076 176.131 31.647 217.002 -7" stroke="#FFF500" stroke-opacity="0.2" stroke-width="0.5" stroke-miterlimit="10"/>
<path d="M-83.9036 28.0333C-37.0414 44.7355 -11.3309 68.8486 3.63923 88.4722C16.2352 104.989 17.2594 111.593 31.3417 124.412C60.8831 151.302 112.642 170.023 139.391 147.329C153.169 135.641 150.035 120.718 157.409 92.0599C163.902 66.8297 178.84 31.8772 219.006 -6.42322" stroke="#FFF500" stroke-opacity="0.2" stroke-width="0.5" stroke-miterlimit="10"/>
<path d="M-83.8073 34.3026C-38.2628 48.2737 -12.792 70.8744 2.15372 89.1472C14.8861 104.714 17.1047 110.758 32.0366 123.351C62.2834 148.861 110.833 166.798 137.54 145.69C151.968 134.286 150.513 119.645 158.992 91.0574C166.289 66.4588 181.552 32.11 221.016 -5.84204" stroke="#FFF500" stroke-opacity="0.2" stroke-width="0.5" stroke-miterlimit="10"/>
<path d="M-83.7109 40.5727C-39.4843 51.8127 -14.2281 72.9062 0.66818 89.8273C13.5534 104.456 16.9248 109.928 32.7349 122.289C63.6272 146.454 109.101 163.622 135.692 144.05C150.8 132.931 150.97 118.584 160.577 90.0541C168.645 66.093 184.266 32.3428 223.023 -5.26355" stroke="#FFF500" stroke-opacity="0.2" stroke-width="0.5" stroke-miterlimit="10"/>
<path d="M-83.6142 46.8421C-40.701 55.3491 -15.6342 74.938 -0.816949 90.4979C12.2438 104.212 16.7305 109.106 33.425 121.229C64.9088 144.084 107.433 160.499 133.836 142.41C149.655 131.573 151.395 117.531 162.155 89.0507C170.967 65.7291 186.974 32.5747 225.024 -4.68066" stroke="#FFF500" stroke-opacity="0.2" stroke-width="0.5" stroke-miterlimit="10"/>
<path d="M-83.5178 53.1115C-41.9259 58.8874 -17.0085 76.9709 -2.3025 91.1731C10.9615 103.983 16.5046 108.297 34.1198 120.167C66.1475 141.752 105.833 157.428 131.984 140.771C148.542 130.223 151.79 116.482 163.737 88.0475C173.264 65.3643 189.685 32.8077 227.031 -4.10632" stroke="#FFF500" stroke-opacity="0.2" stroke-width="0.5" stroke-miterlimit="10"/>
<path d="M-83.4214 59.3808C-43.1474 62.4212 -18.3446 78.9949 -3.78799 91.848C9.70881 103.765 16.2639 107.501 34.8139 119.107C67.3462 139.459 104.29 154.413 130.131 139.131C147.456 128.885 152.167 115.434 165.319 87.045C175.533 64.996 192.4 33.0404 229.037 -3.52698" stroke="#FFF500" stroke-opacity="0.2" stroke-width="0.5" stroke-miterlimit="10"/>
<path d="M-83.3217 65.6509C-44.3654 65.9628 -19.6356 81.0093 -5.27015 92.5229C8.49421 103.555 16.0127 106.722 35.5113 118.046C68.5127 137.205 102.802 151.452 128.283 137.49C146.4 127.564 152.513 114.383 166.904 86.0416C177.775 64.6232 195.107 33.2758 231.043 -2.94849" stroke="#FFF500" stroke-opacity="0.2" stroke-width="0.5" stroke-miterlimit="10"/>
<path d="M-83.2287 71.9203C-45.5902 69.501 -20.8882 83.0047 -6.759 93.1988C7.31373 103.349 15.7331 105.968 36.2028 116.984C69.6473 134.989 101.354 148.547 126.427 135.851C145.365 126.265 152.824 113.325 168.482 85.0383C179.994 64.2428 197.819 33.5052 233.054 -2.36987" stroke="#FFF500" stroke-opacity="0.2" stroke-width="0.5" stroke-miterlimit="10"/>
<path d="M-83.1323 78.187C-46.8108 73.0365 -22.0914 84.9714 -8.24451 93.8711C6.16962 103.135 15.4463 105.223 36.8968 115.921C70.7565 132.807 99.9427 145.693 124.575 134.209C144.351 124.989 153.111 112.253 170.064 84.0324C182.189 63.8502 200.531 33.7354 235.056 -1.79395" stroke="#FFF500" stroke-opacity="0.2" stroke-width="0.5" stroke-miterlimit="10"/>
<path d="M-83.0356 84.4598C-48.0275 76.5773 -23.2473 86.9103 -9.72881 94.5487C5.07188 102.912 15.1495 104.51 37.5921 114.862C71.8514 130.665 98.5644 142.896 122.723 132.572C143.361 123.752 153.369 111.171 171.646 83.0316C184.363 63.4523 203.242 33.9708 237.063 -1.21106" stroke="#FFF500" stroke-opacity="0.2" stroke-width="0.5" stroke-miterlimit="10"/>
<path d="M-82.9392 90.729C-49.2533 80.1146 -24.3593 88.8049 -11.2143 95.2236C4.01551 102.661 14.8463 103.818 38.2861 113.801C72.9328 128.555 97.2109 140.147 120.871 130.932C142.39 122.552 153.601 110.07 173.228 82.0291C186.519 63.0396 205.953 34.2027 239.068 -0.633423" stroke="#FFF500" stroke-opacity="0.2" stroke-width="0.5" stroke-miterlimit="10"/>
<path d="M-82.8429 96.9993C-50.4747 83.6528 -25.4331 90.6509 -12.6998 95.8995C2.99909 102.37 14.5283 103.15 38.981 112.741C74.0056 126.477 95.8748 137.446 119.02 129.292C141.432 121.396 153.808 108.948 174.81 81.0259C188.658 62.614 208.664 34.4356 241.075 -0.0548096" stroke="#FFF500" stroke-opacity="0.2" stroke-width="0.5" stroke-miterlimit="10"/>
<path d="M-82.7465 103.269C-51.6953 87.1908 -26.4747 92.4429 -14.1854 96.5744C2.01827 102.022 14.2086 102.508 39.6733 111.679C75.0706 124.428 94.5491 134.786 117.166 127.653C140.493 120.29 153.988 107.802 176.39 80.0224C190.785 62.1735 211.375 34.6657 243.081 0.526245" stroke="#FFF500" stroke-opacity="0.2" stroke-width="0.5" stroke-miterlimit="10"/>
<path d="M-82.6501 109.538C-52.9167 90.7282 -27.4954 94.1769 -15.6743 97.2494C1.06005 101.598 13.8819 101.889 40.3664 110.619C76.1346 122.407 93.2287 132.178 115.312 126.013C139.562 119.243 154.148 106.631 177.97 79.0165C192.896 61.7157 214.084 34.8976 245.084 1.09961" stroke="#FFF500" stroke-opacity="0.2" stroke-width="0.5" stroke-miterlimit="10"/>
<path d="M-82.5538 115.808C-54.1338 94.2664 -28.5075 95.8517 -17.1564 97.9244C0.121817 101.079 13.5596 101.296 41.0639 109.557C77.2013 120.416 91.9134 129.605 113.464 124.373C138.643 118.259 154.292 105.436 179.555 78.0167C195.006 61.2475 216.799 35.1331 247.093 1.68164" stroke="#FFF500" stroke-opacity="0.2" stroke-width="0.5" stroke-miterlimit="10"/>
<path d="M-82.453 122.077C-55.3552 97.8045 -29.4023 100.61 -18.6375 98.6002C-1.03006 95.3114 13.2381 100.728 41.7632 108.496C78.2742 118.442 90.5895 127.071 111.612 122.733C137.724 117.347 154.416 104.205 181.137 77.0134C197.105 60.7637 219.51 35.3659 249.1 2.26367" stroke="#FFF500" stroke-opacity="0.2" stroke-width="0.5" stroke-miterlimit="10"/>
<path d="M-82.3607 128.347C-56.5798 101.343 -30.3176 101.627 -20.127 99.2752C-2.26596 95.1542 12.9083 100.183 42.4532 107.436C79.3507 116.496 89.2503 124.575 109.76 121.093C136.802 116.508 154.526 102.948 182.719 76.0083C199.2 60.2616 222.221 35.5961 251.106 2.83704" stroke="#FFF500" stroke-opacity="0.2" stroke-width="0.5" stroke-miterlimit="10"/>
<path d="M-82.2643 134.617C-57.8012 104.88 -31.3531 102.543 -21.6126 99.9502C-3.43005 95.1107 12.5842 99.6627 43.1481 106.378C80.433 114.567 87.8942 122.107 107.908 119.458C135.874 115.757 154.623 101.664 184.301 75.011C201.292 59.7525 224.933 35.8332 253.112 3.42163" stroke="#FFF500" stroke-opacity="0.2" stroke-width="0.5" stroke-miterlimit="10"/>
<path d="M-82.1679 140.886C-59.0226 108.418 -32.8221 102.056 -23.0972 100.625C-3.94176 97.8132 12.2653 99.1641 43.843 105.316C81.5267 112.654 86.5147 119.664 106.057 117.817C134.93 115.084 154.71 100.339 185.885 74.0034C203.385 59.2183 227.646 36.0635 255.119 3.99585" stroke="#FFF500" stroke-opacity="0.2" stroke-width="0.5" stroke-miterlimit="10"/>
<path d="M-82.0716 147.156C-60.2441 111.956 -34.0331 103.531 -24.5836 101.301C-5.15537 96.717 11.9482 98.688 44.5362 104.255C82.6272 110.758 85.1039 117.248 104.204 116.176C133.966 114.507 154.79 98.9938 187.465 73.0027C205.476 58.6754 230.355 36.298 257.125 4.57703" stroke="#FFF500" stroke-opacity="0.2" stroke-width="0.5" stroke-miterlimit="10"/>
<path d="M-81.9752 153.426C-61.4646 115.494 -35.3267 105.008 -26.0691 101.976C-6.4802 95.5581 11.6371 98.2328 45.231 103.192C83.7408 108.877 83.66 114.852 102.352 114.535C132.974 114.014 154.864 97.6126 189.047 71.9984C207.57 58.1203 233.066 36.5282 259.131 5.15381" stroke="#FFF500" stroke-opacity="0.2" stroke-width="0.5" stroke-miterlimit="10"/>
</svg>
